<svg xmlns="http://www.w3.org/2000/svg" xmlns:xlink="http://www.w3.org/1999/xlink" width="500" zoomAndPan="magnify" viewBox="0 0 375 374.999991" height="500" preserveAspectRatio="xMidYMid meet" version="1.0"><defs><clipPath id="5ae9fd1240"><path d="M 111 89 L 265.546875 89 L 265.546875 286 L 111 286 Z M 111 89 " clip-rule="nonzero"/></clipPath><clipPath id="8e3bfdca70"><path d="M 167.542969 283.53125 L 187.792969 283.53125 L 187.792969 318.78125 L 167.542969 318.78125 Z M 167.542969 283.53125 " clip-rule="nonzero"/></clipPath><clipPath id="2b111aa73e"><path d="M 209.8125 283.53125 L 230 283.53125 L 230 318.78125 L 209.8125 318.78125 Z M 209.8125 283.53125 " clip-rule="nonzero"/></clipPath><clipPath id="fcef052a43"><path d="M 0.8125 0.53125 L 20.769531 0.53125 L 20.769531 35.78125 L 0.8125 35.78125 Z M 0.8125 0.53125 " clip-rule="nonzero"/></clipPath><clipPath id="9a2fd5788c"><rect x="0" width="21" y="0" height="36"/></clipPath><clipPath id="709b651585"><path d="M 223 225.777344 L 247 225.777344 L 247 244 L 223 244 Z M 223 225.777344 " clip-rule="nonzero"/></clipPath><clipPath id="c0279a525f"><path d="M 199 244 L 215 244 L 215 254.277344 L 199 254.277344 Z M 199 244 " clip-rule="nonzero"/></clipPath><clipPath id="eef44015e3"><path d="M 167.542969 225.777344 L 191 225.777344 L 191 244 L 167.542969 244 Z M 167.542969 225.777344 " clip-rule="nonzero"/></clipPath></defs><g clip-path="url(#5ae9fd1240)"><path fill="#ffffff" d="M 249.042969 136.539062 C 245.414062 136.539062 242.042969 137.789062 239.324219 139.863281 L 239.324219 122.503906 C 239.324219 113.5625 232.070312 106.308594 223.128906 106.308594 C 219.5 106.308594 216.132812 107.558594 213.410156 109.632812 L 213.410156 105.183594 C 213.410156 96.289062 206.199219 89.03125 197.257812 89.03125 C 188.320312 89.03125 181.109375 96.289062 181.109375 105.183594 L 181.109375 105.398438 C 178.601562 103.457031 175.535156 102.203125 172.167969 101.988281 C 163.035156 101.402344 155.109375 109.175781 155.109375 118.226562 L 155.109375 208.835938 L 145.046875 194.367188 C 139.519531 186.59375 129.367188 184.042969 121.378906 188.40625 C 112.785156 193.113281 109.460938 203.652344 113.820312 212.375 C 122.847656 230.472656 133.082031 250.984375 147.722656 267.613281 C 157.785156 279.011719 172.597656 285.535156 188.40625 285.535156 L 214.492188 285.535156 C 242.476562 285.535156 265.238281 262.773438 265.238281 234.789062 L 265.238281 152.734375 C 265.238281 143.835938 257.980469 136.539062 249.042969 136.539062 Z M 258.757812 234.789062 C 258.757812 259.191406 238.890625 279.054688 214.492188 279.054688 L 188.40625 279.054688 C 174.457031 279.054688 161.414062 273.3125 152.605469 263.335938 C 138.523438 247.3125 128.894531 228.09375 119.609375 209.480469 C 116.800781 203.867188 118.960938 197.128906 124.488281 194.105469 C 129.5 191.34375 136.234375 193.113281 139.777344 198.082031 C 139.777344 198.082031 155.597656 220.953125 155.671875 221.054688 C 157.390625 223.542969 161.585938 222.25 161.585938 219.199219 C 161.585938 219.199219 161.585938 118.351562 161.585938 118.226562 C 161.585938 112.667969 166.332031 108.203125 171.867188 108.464844 C 176.917969 108.769531 181.0625 113.433594 181.0625 118.960938 C 181.0625 118.960938 181.019531 199.792969 181.019531 200.238281 C 181.019531 204.351562 187.542969 204.4375 187.542969 200.238281 L 187.585938 105.183594 C 187.585938 99.871094 191.90625 95.511719 197.257812 95.511719 C 202.613281 95.511719 206.933594 99.871094 206.933594 105.183594 C 206.933594 105.183594 206.933594 204.226562 206.933594 204.558594 C 206.933594 208.535156 213.410156 208.789062 213.410156 204.558594 L 213.410156 122.503906 C 213.410156 117.148438 217.773438 112.785156 223.128906 112.785156 C 228.527344 112.785156 232.847656 117.148438 232.847656 122.503906 C 232.847656 122.503906 232.847656 208.484375 232.847656 208.875 C 232.847656 213.003906 239.324219 213.09375 239.324219 208.878906 L 239.324219 152.734375 C 239.324219 147.378906 243.6875 143.015625 249.042969 143.015625 C 254.441406 143.015625 258.757812 147.378906 258.757812 152.734375 Z M 258.757812 234.789062 " fill-opacity="1" fill-rule="nonzero"/></g><g clip-path="url(#8e3bfdca70)"><path fill="#ffffff" d="M 182.898438 253.386719 C 178.957031 271.035156 177.195312 288.609375 177.195312 306.578125 C 177.195312 308.886719 177.222656 311.207031 177.28125 313.53125 C 176.214844 313.226562 175.222656 313.09375 174.3125 313.09375 C 170.019531 313.09375 167.550781 316.03125 167.550781 317.800781 C 167.550781 319.292969 169.886719 319.363281 171.410156 319.363281 C 172.625 319.363281 174.003906 319.277344 175.351562 319.222656 C 180.863281 319.011719 182.09375 319.15625 182.09375 317.503906 C 182.09375 317.242188 181.910156 312.824219 181.910156 306.957031 C 181.910156 289.363281 183.542969 272.089844 187.488281 254.402344 Z M 182.898438 253.386719 " fill-opacity="1" fill-rule="nonzero"/></g><g clip-path="url(#2b111aa73e)"><g transform="matrix(1, 0, 0, 1, 209, 283)"><g clip-path="url(#9a2fd5788c)"><g clip-path="url(#fcef052a43)"><path fill="#ffffff" d="M 5.414062 -29.613281 C 9.355469 -11.964844 11.117188 5.609375 11.117188 23.578125 C 11.117188 25.886719 11.089844 28.207031 11.03125 30.53125 C 12.097656 30.226562 13.089844 30.09375 14 30.09375 C 18.292969 30.09375 20.761719 33.03125 20.761719 34.800781 C 20.761719 36.292969 18.425781 36.363281 16.902344 36.363281 C 15.683594 36.363281 14.308594 36.277344 12.957031 36.222656 C 7.445312 36.011719 6.214844 36.15625 6.214844 34.503906 C 6.214844 34.242188 6.402344 29.824219 6.402344 23.957031 C 6.402344 6.363281 4.769531 -10.910156 0.824219 -28.597656 Z M 5.414062 -29.613281 " fill-opacity="1" fill-rule="nonzero"/></g></g></g></g><g clip-path="url(#709b651585)"><path fill="#ffffff" d="M 245.433594 239.355469 L 231.601562 234.515625 L 245.433594 229.675781 C 245.679688 229.59375 245.902344 229.46875 246.101562 229.300781 C 246.296875 229.128906 246.457031 228.929688 246.570312 228.695312 C 246.6875 228.460938 246.753906 228.214844 246.769531 227.957031 C 246.785156 227.695312 246.75 227.441406 246.664062 227.195312 C 246.578125 226.949219 246.449219 226.730469 246.273438 226.539062 C 246.101562 226.34375 245.894531 226.191406 245.660156 226.082031 C 245.421875 225.972656 245.175781 225.914062 244.914062 225.902344 C 244.65625 225.890625 244.402344 225.933594 244.160156 226.023438 L 225.210938 232.65625 C 224.828125 232.789062 224.515625 233.023438 224.277344 233.355469 C 224.039062 233.691406 223.921875 234.058594 223.917969 234.46875 C 223.917969 234.484375 223.917969 234.5 223.917969 234.515625 C 223.917969 234.53125 223.917969 234.542969 223.917969 234.558594 C 223.921875 234.96875 224.039062 235.339844 224.277344 235.671875 C 224.515625 236.003906 224.828125 236.238281 225.210938 236.375 L 244.160156 243.003906 C 244.402344 243.097656 244.65625 243.136719 244.914062 243.125 C 245.175781 243.117188 245.421875 243.054688 245.660156 242.945312 C 245.894531 242.835938 246.101562 242.683594 246.273438 242.492188 C 246.449219 242.296875 246.578125 242.078125 246.664062 241.832031 C 246.75 241.585938 246.785156 241.332031 246.769531 241.074219 C 246.753906 240.8125 246.6875 240.566406 246.570312 240.332031 C 246.457031 240.101562 246.296875 239.898438 246.101562 239.730469 C 245.902344 239.558594 245.679688 239.433594 245.433594 239.355469 Z M 245.433594 239.355469 " fill-opacity="1" fill-rule="nonzero"/></g><g clip-path="url(#c0279a525f)"><path fill="#ffffff" d="M 207.042969 254.535156 C 205.191406 254.535156 203.355469 253.808594 201.949219 252.5 C 201.167969 251.773438 200.5625 250.921875 200.132812 249.945312 C 199.699219 248.96875 199.476562 247.945312 199.464844 246.878906 C 199.460938 246.621094 199.507812 246.375 199.601562 246.136719 C 199.699219 245.902344 199.835938 245.691406 200.015625 245.507812 C 200.195312 245.324219 200.402344 245.183594 200.636719 245.082031 C 200.875 244.980469 201.121094 244.929688 201.375 244.925781 L 201.394531 244.925781 C 201.652344 244.925781 201.894531 244.976562 202.132812 245.070312 C 202.367188 245.167969 202.574219 245.308594 202.757812 245.484375 C 202.9375 245.664062 203.078125 245.871094 203.175781 246.105469 C 203.277344 246.339844 203.328125 246.585938 203.328125 246.839844 C 203.335938 247.964844 203.753906 248.90625 204.582031 249.667969 C 205.324219 250.359375 206.292969 250.71875 207.242188 250.660156 C 209.105469 250.542969 210.644531 248.847656 210.671875 246.878906 C 210.675781 246.621094 210.726562 246.375 210.828125 246.140625 C 210.929688 245.902344 211.074219 245.695312 211.257812 245.519531 C 211.441406 245.339844 211.652344 245.203125 211.890625 245.105469 C 212.128906 245.011719 212.375 244.964844 212.632812 244.96875 C 212.886719 244.972656 213.132812 245.027344 213.367188 245.128906 C 213.605469 245.226562 213.8125 245.371094 213.992188 245.554688 C 214.167969 245.738281 214.304688 245.949219 214.402344 246.1875 C 214.496094 246.425781 214.542969 246.671875 214.539062 246.929688 C 214.484375 250.941406 211.386719 254.273438 207.484375 254.519531 C 207.335938 254.53125 207.191406 254.535156 207.042969 254.535156 Z M 207.042969 254.535156 " fill-opacity="1" fill-rule="nonzero"/></g><g clip-path="url(#eef44015e3)"><path fill="#ffffff" d="M 190.527344 234.515625 C 190.527344 234.5 190.527344 234.484375 190.527344 234.46875 C 190.523438 234.058594 190.40625 233.691406 190.167969 233.355469 C 189.929688 233.023438 189.621094 232.789062 189.234375 232.65625 L 170.285156 226.023438 C 170.042969 225.933594 169.789062 225.890625 169.53125 225.902344 C 169.269531 225.914062 169.023438 225.972656 168.785156 226.082031 C 168.550781 226.191406 168.34375 226.34375 168.171875 226.539062 C 167.996094 226.730469 167.867188 226.949219 167.78125 227.195312 C 167.695312 227.441406 167.660156 227.695312 167.675781 227.957031 C 167.691406 228.214844 167.757812 228.460938 167.875 228.695312 C 167.988281 228.929688 168.148438 229.128906 168.34375 229.300781 C 168.542969 229.46875 168.765625 229.59375 169.011719 229.675781 L 182.84375 234.515625 L 169.007812 239.355469 C 168.761719 239.433594 168.539062 239.558594 168.339844 239.730469 C 168.144531 239.898438 167.988281 240.101562 167.871094 240.332031 C 167.753906 240.566406 167.6875 240.8125 167.671875 241.074219 C 167.65625 241.332031 167.691406 241.585938 167.777344 241.832031 C 167.863281 242.078125 167.992188 242.296875 168.167969 242.492188 C 168.34375 242.683594 168.546875 242.835938 168.785156 242.945312 C 169.019531 243.054688 169.265625 243.117188 169.527344 243.125 C 169.789062 243.136719 170.039062 243.097656 170.285156 243.003906 L 189.230469 236.375 C 189.617188 236.238281 189.925781 236.003906 190.164062 235.671875 C 190.402344 235.339844 190.519531 234.96875 190.523438 234.558594 C 190.527344 234.542969 190.527344 234.53125 190.527344 234.515625 Z M 190.527344 234.515625 " fill-opacity="1" fill-rule="nonzero"/></g></svg>